<svg width="46" height="27" viewBox="0 0 46 27" fill="none" xmlns="http://www.w3.org/2000/svg">
<path d="M12.8356 0.733694C15.3952 0.716383 17.9022 1.45956 20.0389 2.86899C22.1755 4.27841 23.8455 6.2906 24.837 8.65037C25.8285 11.0102 26.0969 13.6112 25.6082 16.1238C25.1195 18.6363 23.8956 20.9471 22.0919 22.7632C20.2881 24.5792 17.9856 25.8187 15.4765 26.3245C12.9673 26.8302 10.3645 26.5795 7.99801 25.604C5.63156 24.6285 3.60809 22.9722 2.1842 20.8452C0.760304 18.7182 0.000130452 16.2163 7.19126e-05 13.6566C-0.0113342 10.2409 1.33453 6.96052 3.74162 4.53704C6.14871 2.11356 9.41988 0.745468 12.8356 0.733694ZM33.3332 1.49116C36.8767 1.49116 39.7502 6.93756 39.7502 13.6582C39.7502 20.3757 36.8767 25.8252 33.3317 25.8252C29.7866 25.8252 26.9147 20.3772 26.9147 13.6582C26.9147 6.93909 29.7881 1.49116 33.3332 1.49116ZM43.2539 2.75923C44.5005 2.75923 45.5109 7.63829 45.5109 13.6582C45.5109 19.678 44.5005 24.5571 43.2539 24.5571C42.0073 24.5571 40.9968 19.6765 40.9968 13.6582C40.9968 7.63983 42.0134 2.75769 43.2523 2.75769L43.2539 2.75923Z" fill="white"/>
</svg>
