<svg width="41" height="32" viewBox="0 0 41 32" fill="none" xmlns="http://www.w3.org/2000/svg">
<path d="M34.5493 3.06631C31.9119 1.85941 29.1286 0.998706 26.269 0.50576C26.2424 0.500332 26.2148 0.503498 26.1901 0.514796C26.1655 0.526094 26.1451 0.544936 26.132 0.568579C25.7546 1.25243 25.4121 1.9548 25.1057 2.67301C22.0234 2.20646 18.8882 2.20646 15.8059 2.67301C15.4957 1.95284 15.1457 1.25029 14.7577 0.568579C14.7436 0.545896 14.723 0.527855 14.6987 0.516689C14.6743 0.505523 14.6472 0.501723 14.6207 0.50576C11.7623 0.998223 8.98026 1.85895 6.34454 3.06631C6.32181 3.07563 6.30262 3.09189 6.28973 3.11274C1.57486 9.83882 -0.557995 18.0295 0.279921 26.1918C0.281734 26.2106 0.287417 26.2287 0.296613 26.2452C0.305809 26.2616 0.31832 26.276 0.33336 26.2874C3.4041 28.5539 6.83876 30.2842 10.4908 31.4044C10.5157 31.4102 10.5418 31.4089 10.566 31.4007C10.5902 31.3925 10.6116 31.3777 10.6279 31.358C11.4167 30.2928 12.1161 29.1646 12.7188 27.9849C12.7269 27.9688 12.7315 27.9512 12.7323 27.9333C12.7331 27.9153 12.7301 27.8974 12.7235 27.8806C12.7169 27.8639 12.7069 27.8487 12.694 27.8361C12.6812 27.8235 12.6658 27.8137 12.6489 27.8074C11.5531 27.3907 10.492 26.8884 9.4755 26.3052C9.45823 26.2934 9.44391 26.2778 9.43362 26.2596C9.42334 26.2414 9.41737 26.2211 9.41618 26.2003C9.41499 26.1795 9.41861 26.1586 9.42675 26.1394C9.4349 26.1202 9.44736 26.1031 9.46317 26.0894C9.67692 25.9296 9.88931 25.7644 10.0935 25.5978C10.1121 25.5818 10.135 25.5717 10.1593 25.5685C10.1837 25.5654 10.2084 25.5694 10.2305 25.58C13.429 27.0763 16.919 27.852 20.4524 27.852C23.9857 27.852 27.4757 27.0763 30.6743 25.58C30.6962 25.569 30.7209 25.5647 30.7453 25.5676C30.7696 25.5705 30.7926 25.5805 30.8113 25.5964C31.0154 25.7644 31.2223 25.931 31.443 26.0908C31.4588 26.1043 31.4714 26.1214 31.4797 26.1405C31.4879 26.1597 31.4917 26.1805 31.4906 26.2013C31.4895 26.2222 31.4837 26.2425 31.4735 26.2607C31.4634 26.2789 31.4492 26.2946 31.432 26.3065C30.4181 26.8955 29.356 27.398 28.2572 27.8087C28.24 27.8151 28.2245 27.8251 28.2115 27.838C28.1986 27.8509 28.1885 27.8664 28.182 27.8834C28.1755 27.9005 28.1728 27.9187 28.1739 27.9369C28.1751 27.9551 28.1801 27.9729 28.1887 27.989C28.7914 29.1583 29.4793 30.282 30.2467 31.3512C30.2619 31.3722 30.2832 31.3881 30.3076 31.3969C30.3321 31.4057 30.3586 31.4069 30.3838 31.4003C34.0424 30.2837 37.4831 28.5532 40.5577 26.2833C40.5723 26.2719 40.5845 26.2577 40.5934 26.2415C40.6024 26.2253 40.6079 26.2075 40.6098 26.1891C41.4672 18.0247 39.331 9.82687 34.5958 3.11001C34.5853 3.09093 34.569 3.07564 34.5493 3.06631ZM13.7068 21.5828C12.6807 21.5177 11.7217 21.0524 11.0375 20.2876C10.3532 19.5228 9.99883 18.5202 10.051 17.4969C9.99299 16.472 10.3453 15.466 11.0307 14.6997C11.7161 13.9334 12.6785 13.4694 13.7068 13.4096C14.2168 13.4364 14.7164 13.5636 15.1768 13.7839C15.6372 14.0042 16.0492 14.3133 16.3891 14.6932C16.729 15.0731 16.99 15.5163 17.1571 15.9973C17.3242 16.4783 17.394 16.9875 17.3625 17.4955C17.4205 18.5204 17.0682 19.5264 16.3828 20.2927C15.6974 21.059 14.735 21.523 13.7068 21.5828ZM27.224 21.5828C26.198 21.5177 25.239 21.0524 24.5548 20.2876C23.8705 19.5228 23.5161 18.5202 23.5683 17.4969C23.5106 16.4722 23.8632 15.4666 24.5485 14.7006C25.2338 13.9346 26.196 13.4708 27.224 13.4109C27.734 13.4377 28.2337 13.565 28.694 13.7853C29.1544 14.0056 29.5665 14.3146 29.9064 14.6945C30.2463 15.0744 30.5073 15.5177 30.6744 15.9986C30.8414 16.4796 30.9113 16.9889 30.8798 17.4969C30.9098 18.0047 30.8389 18.5134 30.6712 18.9939C30.5035 19.4743 30.2422 19.9171 29.9025 20.2967C29.5627 20.6763 29.1511 20.9853 28.6912 21.206C28.2314 21.4267 27.7337 21.5548 27.224 21.5828Z" fill="white"/>
</svg>
