<svg width="37" height="37" viewBox="0 0 37 37" fill="none" xmlns="http://www.w3.org/2000/svg">
<g id="Group 31">
<g id="Group">
<path id="Vector" d="M6.62976 16.5692L22.4726 10.0473C24.0487 9.36795 29.3478 7.19398 29.3478 7.19398C29.3478 7.19398 31.7935 6.24287 31.6032 8.55272C31.5489 9.50383 30.9782 12.8463 30.4347 16.4334L28.7227 27.113C28.7227 27.113 28.5869 28.6891 27.4184 28.9609C26.2498 29.2326 24.3476 28.0098 24.0215 27.738C23.7498 27.5206 18.9127 24.4771 17.1463 22.9824C16.6572 22.5748 16.1137 21.7596 17.2007 20.8085C19.6464 18.553 22.5813 15.7812 24.3476 14.0148C25.1629 13.1996 25.9781 11.2974 22.5813 13.6072L13.0158 20.0204C13.0158 20.0204 11.9288 20.6998 9.89071 20.0748C7.85262 19.4497 5.46125 18.6345 5.46125 18.6345C5.46125 18.6345 3.85794 17.6562 6.62976 16.5692Z" fill="white"/>
</g>
</g>
</svg>
