<svg width="36" height="30" viewBox="0 0 36 30" fill="none"
    xmlns="http://www.w3.org/2000/svg">
    <path d="M35.2667 4.17083C33.9451 4.76409 32.5434 5.15333 31.108 5.32558C32.6188 4.40922 33.7493 2.96742 34.2888 1.26889C32.8684 2.12305 31.3145 2.72495 29.6941 3.04858C28.6027 1.87469 27.1602 1.09781 25.5895 0.838026C24.0188 0.578246 22.4074 0.850037 21.0043 1.61138C19.6013 2.37273 18.4849 3.58123 17.8276 5.05007C17.1702 6.5189 17.0086 8.16627 17.3678 9.73749C14.4909 9.59142 11.6764 8.83379 9.10725 7.51381C6.53804 6.19383 4.2715 4.34101 2.4548 2.07565C1.53084 3.69036 1.24815 5.60099 1.66416 7.41932C2.08018 9.23765 3.16369 10.8273 4.69454 11.8652C3.54513 11.8267 2.4215 11.51 1.41751 10.9416C1.41751 10.9717 1.41751 11.003 1.41751 11.0343C1.4178 12.7274 1.99591 14.3683 3.05381 15.6788C4.11171 16.9892 5.58429 17.8885 7.22182 18.2242C6.15591 18.516 5.0383 18.5572 3.9543 18.3446C4.41711 19.801 5.31718 21.0746 6.52882 21.9875C7.74045 22.9004 9.20317 23.4071 10.7127 23.4368C8.14977 25.4755 4.9846 26.5812 1.72644 26.576C1.14966 26.5794 0.57319 26.5484 0 26.4832C3.30809 28.6377 7.15827 29.7814 11.0906 29.7777C24.3983 29.7777 31.676 18.6047 31.676 8.91628C31.676 8.59518 31.6688 8.2789 31.6546 7.96743C33.0712 6.92984 34.294 5.64459 35.2655 4.17203" fill="white"/>
</svg>
